<svg width="194" height="269" viewBox="0 0 194 269" fill="none" xmlns="http://www.w3.org/2000/svg">
<ellipse cx="97" cy="135.5" rx="97" ry="97.5" fill="black" fill-opacity="0.05"/>
<path d="M192.5 135.5C192.5 188.527 149.736 231.5 97 231.5C44.2641 231.5 1.50003 188.527 1.50003 135.5C1.50003 82.4734 44.2641 39.5 97 39.5C149.736 39.5 192.5 82.4734 192.5 135.5Z" stroke="black" stroke-opacity="0.7" stroke-width="3"/>
<path d="M17.8519 178.474C19.5044 178.474 20.8441 177.265 20.8441 175.774C20.8441 174.283 19.5044 173.075 17.8519 173.075C16.1993 173.075 14.8596 174.283 14.8596 175.774C14.8596 177.265 16.1993 178.474 17.8519 178.474Z" fill="#040C15"/>
<path d="M99.4577 203.506C101.11 203.506 102.45 202.297 102.45 200.806C102.45 199.315 101.11 198.107 99.4577 198.107C97.8051 198.107 96.4655 199.315 96.4655 200.806C96.4655 202.297 97.8051 203.506 99.4577 203.506Z" fill="#040C15"/>
<path d="M61.9191 187.308C63.5716 187.308 64.9113 186.1 64.9113 184.609C64.9113 183.118 63.5716 181.909 61.9191 181.909C60.2665 181.909 58.9268 183.118 58.9268 184.609C58.9268 186.1 60.2665 187.308 61.9191 187.308Z" fill="#040C15"/>
<path d="M132.644 189.763C134.297 189.763 135.636 188.554 135.636 187.063C135.636 185.572 134.297 184.363 132.644 184.363C130.992 184.363 129.652 185.572 129.652 187.063C129.652 188.554 130.992 189.763 132.644 189.763Z" fill="#040C15"/>
<path d="M132.644 135.772C134.297 135.772 135.636 134.564 135.636 133.073C135.636 131.582 134.297 130.373 132.644 130.373C130.992 130.373 129.652 131.582 129.652 133.073C129.652 134.564 130.992 135.772 132.644 135.772Z" fill="#040C15"/>
<path d="M61.919 184.854V116.63" stroke="#040C15" stroke-width="3"/>
<path d="M99.4632 201.051V87.6716" stroke="#040C15" stroke-width="3"/>
<path d="M132.73 188.781V132.827" stroke="#040C15" stroke-width="3"/>
<path d="M61.9191 118.593C63.5716 118.593 64.9113 117.385 64.9113 115.894C64.9113 114.403 63.5716 113.194 61.9191 113.194C60.2665 113.194 58.9268 114.403 58.9268 115.894C58.9268 117.385 60.2665 118.593 61.9191 118.593Z" fill="#040C15"/>
<path d="M178.066 175.529L163.635 163.367C162.938 162.78 161.833 162.854 161.242 163.528L149.902 176.437C148.946 177.525 147.006 176.925 146.991 175.536L146.221 102.783C146.21 101.696 144.942 100.995 143.863 101.478L120.265 112.052C119.71 112.301 119.359 112.811 119.359 113.371V197.861C119.359 198.674 118.628 199.334 117.727 199.334H114.072C113.171 199.334 112.44 198.674 112.44 197.861V56.0707C112.44 54.8935 110.985 54.1923 109.901 54.8468L86.3274 69.0739C85.8742 69.3472 85.6027 69.8062 85.6027 70.2977V198.584C85.6027 199.638 84.4107 200.351 83.3346 199.94L76.9541 197.505C76.3502 197.275 75.958 196.741 75.958 196.149V86.4327C75.958 85.2697 74.5337 84.5657 73.4472 85.1918L49.4547 99.0171C48.9852 99.2876 48.7011 99.7555 48.7011 100.258V176.024C48.7011 177.439 46.7055 178.04 45.7639 176.908L33.925 162.687C33.3188 161.958 32.1325 161.897 31.437 162.556L17.251 176.02" stroke="#040C15" stroke-width="3" stroke-linejoin="round"/>
<path d="M177.799 177.983C179.452 177.983 180.792 176.774 180.792 175.283C180.792 173.792 179.452 172.584 177.799 172.584C176.147 172.584 174.807 173.792 174.807 175.283C174.807 176.774 176.147 177.983 177.799 177.983Z" fill="#040C15"/>
<path d="M99.4577 89.1441C101.11 89.1441 102.45 87.9354 102.45 86.4445C102.45 84.9536 101.11 83.745 99.4577 83.745C97.8051 83.745 96.4655 84.9536 96.4655 86.4445C96.4655 87.9354 97.8051 89.1441 99.4577 89.1441Z" fill="#040C15"/>
<path d="M33.1564 32.6755C33.9695 33.8761 34.2284 35.1499 33.9331 36.4971C33.6425 37.8212 32.6459 39.0392 30.9434 40.1509L28.1384 41.9824L32.2179 48.006L30.3131 49.2498L20.5418 34.8222L25.2517 31.7469C26.8984 30.6716 28.4138 30.2494 29.7977 30.4801C31.1957 30.7018 32.3152 31.4336 33.1564 32.6755ZM29.892 38.5984C30.9526 37.9059 31.5799 37.1679 31.7738 36.3845C31.9678 35.6011 31.7797 34.7885 31.2096 33.9467C30.004 32.1665 28.3685 31.9507 26.3031 33.2993L23.4981 35.1309L27.087 40.43L29.892 38.5984Z" fill="black"/>
<path d="M102.005 251.592C102.001 252.025 101.971 252.483 101.917 252.966L90.9675 252.867C91.0387 254.218 91.4875 255.281 92.3138 256.055C93.157 256.812 94.1786 257.197 95.3785 257.207C96.3618 257.216 97.1805 256.999 97.8345 256.555C98.5054 256.094 98.9776 255.482 99.2512 254.717L101.701 254.739C101.323 256.053 100.58 257.121 99.4721 257.944C98.3647 258.751 96.9944 259.147 95.3612 259.132C94.0612 259.121 92.8972 258.818 91.8692 258.226C90.8579 257.633 90.0653 256.801 89.4917 255.729C88.9181 254.641 88.6378 253.388 88.6505 251.971C88.6633 250.555 88.9579 249.316 89.5341 248.254C90.1104 247.193 90.9094 246.383 91.9312 245.826C92.9697 245.252 94.1556 244.971 95.4889 244.983C96.7889 244.995 97.9363 245.288 98.9311 245.864C99.9259 246.44 100.686 247.23 101.21 248.235C101.751 249.223 102.016 250.342 102.005 251.592ZM99.6589 251.096C99.6667 250.229 99.4818 249.486 99.104 248.866C98.7264 248.229 98.2057 247.749 97.5419 247.427C96.895 247.087 96.1715 246.914 95.3715 246.907C94.2216 246.897 93.235 247.254 92.4117 247.98C91.6051 248.706 91.1376 249.719 91.0092 251.018L99.6589 251.096Z" fill="black"/>
<path d="M71.9406 244.795C72.5393 244.118 73.3234 243.616 74.2928 243.288C75.2819 242.947 76.356 242.896 77.515 243.135C78.7066 243.38 79.7252 243.888 80.5706 244.658C81.4324 245.431 82.0332 246.397 82.373 247.556C82.7162 248.699 82.7466 249.956 82.4642 251.327C82.1851 252.682 81.6588 253.832 80.8852 254.779C80.1117 255.726 79.1747 256.392 78.0742 256.778C76.99 257.168 75.8521 257.239 74.6605 256.994C73.5178 256.759 72.5578 256.297 71.7805 255.61C71.023 254.909 70.4946 254.128 70.1956 253.267L68.375 262.106L66.1467 261.647L70.2217 241.862L72.4499 242.321L71.9406 244.795ZM80.187 250.858C80.3954 249.846 80.3729 248.922 80.1195 248.087C79.8661 247.252 79.4287 246.567 78.8075 246.03C78.2026 245.497 77.4838 245.145 76.6513 244.973C75.8351 244.805 75.034 244.853 74.248 245.117C73.4817 245.367 72.8074 245.832 72.2249 246.512C71.6621 247.179 71.2782 248.01 71.0731 249.006C70.8647 250.018 70.8855 250.95 71.1356 251.801C71.4053 252.639 71.841 253.333 72.4425 253.883C73.0638 254.419 73.7825 254.771 74.5987 254.939C75.4312 255.111 76.2306 255.071 76.9969 254.821C77.7829 254.557 78.4573 254.092 79.0201 253.425C79.5862 252.742 79.9751 251.886 80.187 250.858Z" fill="black"/>
<path d="M39.5699 35.1863C39.05 33.8864 38.8586 32.6447 38.9956 31.4612C39.1264 30.2622 39.5407 29.2109 40.2384 28.3074C40.9516 27.3977 41.8738 26.719 43.005 26.2712C44.1208 25.8295 45.1853 25.686 46.1985 25.8406C47.2116 25.9952 48.0651 26.3564 48.7589 26.9243L47.8306 24.603L49.9691 23.7565L55.0563 36.477L52.9177 37.3235L51.9709 34.9558C51.8495 35.8643 51.4694 36.7317 50.8307 37.5581C50.2012 38.363 49.3363 38.9832 48.236 39.4187C47.1048 39.8665 45.9706 39.9928 44.8335 39.7976C43.6964 39.6024 42.6633 39.1062 41.7341 38.3089C40.8049 37.5116 40.0835 36.4707 39.5699 35.1863ZM50.3649 30.9401C49.9812 29.9806 49.4533 29.2216 48.7812 28.6631C48.1091 28.1046 47.3656 27.7716 46.5507 27.6639C45.7451 27.5347 44.9472 27.6265 44.1568 27.9394C43.3665 28.2522 42.7202 28.7231 42.2178 29.3522C41.7155 29.9812 41.413 30.7283 41.3102 31.5936C41.2075 32.4588 41.348 33.3711 41.7317 34.3305C42.1216 35.3055 42.6556 36.0799 43.3339 36.6539C44.006 37.2124 44.7449 37.5563 45.5505 37.6855C46.3499 37.7993 47.1447 37.6997 47.9351 37.3869C48.7254 37.074 49.3717 36.6031 49.8741 35.974C50.3857 35.3234 50.6929 34.5655 50.7956 33.7003C50.8922 32.8196 50.7486 31.8995 50.3649 30.9401Z" fill="black"/>
<path d="M58.2386 15.7717L62.9676 33.6571L60.7708 34.2484L56.0418 16.363L58.2386 15.7717Z" fill="black"/>
<path d="M90.7134 24.4074L83.1298 24.9056L81.9195 28.8679L79.5246 29.0252L84.9764 11.3073L87.5958 11.1353L94.692 28.0288L92.2971 28.1861L90.7134 24.4074ZM89.9757 22.6022L86.4085 14.0189L83.6893 23.0151L89.9757 22.6022Z" fill="black"/>
<path d="M121.193 17.1395C122.243 17.3296 123.131 17.719 123.858 18.3078C124.588 18.8803 125.1 19.6417 125.393 20.592C125.686 21.5424 125.701 22.6372 125.439 23.8765L123.768 31.7768L121.554 31.3758L123.158 23.7935C123.44 22.4564 123.32 21.3764 122.796 20.5534C122.291 19.7172 121.473 19.1965 120.342 18.9916C119.177 18.7807 118.171 18.988 117.324 19.6133C116.48 20.2223 115.91 21.228 115.613 22.6303L114.051 30.017L111.837 29.616L113.441 22.0337C113.723 20.6966 113.603 19.6166 113.079 18.7937C112.574 17.9574 111.756 17.4368 110.625 17.2319C109.46 17.021 108.455 17.2282 107.607 17.8535C106.763 18.4626 106.193 19.4683 105.896 20.8706L104.334 28.2572L102.096 27.8518L104.93 14.4482L107.169 14.8536L106.76 16.7859C107.351 16.1649 108.055 15.7338 108.873 15.4924C109.706 15.254 110.574 15.2164 111.476 15.3798C112.608 15.5847 113.555 16.0186 114.317 16.6815C115.079 17.3444 115.57 18.2037 115.79 19.2593C116.367 18.3818 117.145 17.7609 118.125 17.3965C119.104 17.0321 120.127 16.9465 121.193 17.1395Z" fill="black"/>
<path d="M133.858 28.0323C134.481 26.7786 135.284 25.7991 136.267 25.0937C137.257 24.3734 138.33 23.9559 139.484 23.8411C140.654 23.7332 141.792 23.9315 142.9 24.4358C143.992 24.9332 144.825 25.5963 145.399 26.4251C145.972 27.2539 146.282 28.1089 146.328 28.99L147.441 26.7513L149.534 27.7046L143.436 39.9728L141.343 39.0194L142.478 36.7359C141.712 37.2658 140.801 37.583 139.745 37.6875C138.711 37.7841 137.656 37.5871 136.579 37.0966C135.472 36.5923 134.604 35.8677 133.976 34.9228C133.348 33.9779 133.018 32.9029 132.984 31.6979C132.951 30.4929 133.242 29.271 133.858 28.0323ZM144.403 32.863C144.863 31.9376 145.074 31.0453 145.036 30.1861C144.998 29.3268 144.742 28.5696 144.268 27.9143C143.816 27.251 143.204 26.7432 142.43 26.3909C141.657 26.0386 140.862 25.8964 140.047 25.9645C139.232 26.0325 138.464 26.3234 137.744 26.8373C137.024 27.3511 136.433 28.0707 135.973 28.996C135.506 29.9363 135.288 30.8435 135.318 31.7177C135.356 32.5769 135.601 33.3382 136.053 34.0015C136.512 34.6498 137.128 35.1502 137.901 35.5025C138.675 35.8548 139.469 35.997 140.284 35.9289C141.122 35.8529 141.901 35.5579 142.621 35.0441C143.349 34.5153 143.943 33.7883 144.403 32.863Z" fill="black"/>
<path d="M159.251 36.2422C160.045 35.8386 160.873 35.6704 161.734 35.7376C162.609 35.8142 163.485 36.1551 164.364 36.7602L162.969 38.6517L162.475 38.3113C160.375 36.8648 158.504 37.255 156.862 39.4818L152.441 45.4782L150.567 44.1877L158.698 33.1608L160.571 34.4513L159.251 36.2422Z" fill="black"/>
<path d="M33.9787 224.734C33.0153 225.818 31.8387 226.389 30.4491 226.447C29.083 226.503 27.6402 225.856 26.1206 224.505L23.6169 222.279L18.7832 227.716L17.083 226.205L28.6607 213.182L32.8646 216.92C34.3343 218.226 35.1335 219.572 35.2621 220.958C35.4032 222.355 34.9754 223.613 33.9787 224.734ZM27.3664 223.104C28.313 223.946 29.1932 224.36 30.0071 224.348C30.8209 224.335 31.5656 223.949 32.2411 223.19C33.6697 221.583 33.4622 219.96 31.6187 218.321L29.1151 216.095L24.8628 220.878L27.3664 223.104Z" fill="black"/>
<path d="M42.3842 231.648C43.1391 231.196 43.9423 230.982 44.7938 231.004C45.6594 231.035 46.5442 231.334 47.4481 231.9L46.2003 233.891L45.6919 233.573C43.531 232.219 41.7161 232.714 40.2471 235.059L36.2916 241.372L34.3637 240.164L41.6377 228.554L43.5656 229.762L42.3842 231.648Z" fill="black"/>
<path d="M52.953 250.349C51.7696 249.852 50.8066 249.132 50.064 248.188C49.3368 247.25 48.9029 246.173 48.7622 244.958C48.6434 243.733 48.858 242.467 49.4061 241.161C49.9477 239.87 50.7014 238.849 51.6674 238.097C52.6551 237.337 53.7427 236.898 54.9302 236.782C56.1241 236.65 57.3205 236.836 58.5192 237.339C59.718 237.842 60.6887 238.565 61.4313 239.509C62.1803 240.438 62.6251 241.51 62.7658 242.726C62.9218 243.948 62.7258 245.213 62.1777 246.519C61.6297 247.825 60.8541 248.856 59.851 249.61C58.8697 250.355 57.7744 250.79 56.5651 250.915C55.3558 251.04 54.1518 250.851 52.953 250.349ZM53.7267 248.504C54.4798 248.82 55.2609 248.94 56.0701 248.864C56.8792 248.788 57.6319 248.48 58.3281 247.94C59.0396 247.408 59.6082 246.634 60.0337 245.62C60.4593 244.605 60.6205 243.661 60.5175 242.786C60.4145 241.911 60.1112 241.17 59.6076 240.561C59.1104 239.937 58.4852 239.466 57.7321 239.15C56.9637 238.828 56.1826 238.708 55.3888 238.791C54.6168 238.865 53.8904 239.174 53.2096 239.72C52.5288 240.266 51.9756 241.046 51.55 242.06C51.1181 243.09 50.9382 244.036 51.0105 244.898C51.0981 245.766 51.3828 246.509 51.8647 247.127C52.3529 247.729 52.9736 248.188 53.7267 248.504Z" fill="black"/>
<path d="M124.825 243.016L127.126 250.756C127.315 251.395 127.587 251.81 127.939 252.001C128.286 252.176 128.796 252.163 129.467 251.964L131.072 251.487L131.621 253.332L129.656 253.916C128.442 254.277 127.448 254.268 126.675 253.889C125.901 253.511 125.325 252.682 124.945 251.404L122.644 243.664L120.943 244.169L120.409 242.372L122.11 241.866L121.127 238.559L123.308 237.911L124.291 241.218L127.718 240.2L128.252 241.997L124.825 243.016Z" fill="black"/>
<path d="M134.59 235.142C134.193 235.315 133.797 235.324 133.402 235.169C133.007 235.014 132.723 234.737 132.55 234.34C132.377 233.943 132.368 233.547 132.524 233.152C132.679 232.757 132.955 232.473 133.353 232.3C133.735 232.134 134.115 232.131 134.495 232.293C134.89 232.448 135.174 232.725 135.347 233.122C135.52 233.519 135.529 233.915 135.373 234.31C135.233 234.698 134.972 234.976 134.59 235.142ZM136.487 236.743L141.958 249.303L139.872 250.212L134.402 237.651L136.487 236.743Z" fill="black"/>
<path d="M157.611 232.136C157.841 232.503 158.063 232.904 158.277 233.341L148.998 239.155C149.786 240.254 150.736 240.908 151.849 241.115C152.968 241.299 154.036 241.073 155.052 240.436C155.886 239.914 156.458 239.289 156.77 238.563C157.087 237.813 157.155 237.043 156.974 236.252L159.05 234.951C159.439 236.261 159.388 237.562 158.898 238.852C158.4 240.128 157.459 241.2 156.075 242.067C154.973 242.757 153.829 243.129 152.644 243.184C151.473 243.229 150.357 242.955 149.296 242.361C148.227 241.752 147.316 240.848 146.564 239.648C145.811 238.447 145.392 237.244 145.306 236.04C145.22 234.835 145.457 233.722 146.018 232.702C146.584 231.66 147.432 230.784 148.562 230.076C149.663 229.386 150.788 229.015 151.936 228.965C153.085 228.914 154.15 229.171 155.133 229.735C156.121 230.276 156.947 231.076 157.611 232.136ZM155.367 232.981C154.907 232.246 154.351 231.72 153.699 231.401C153.038 231.067 152.341 230.944 151.608 231.029C150.88 231.092 150.177 231.336 149.499 231.76C148.524 232.371 147.886 233.204 147.583 234.259C147.295 235.305 147.446 236.41 148.037 237.574L155.367 232.981Z" fill="black"/>
<path d="M172.169 229.874C171.394 230.583 170.58 231.089 169.729 231.392C168.867 231.684 168.043 231.758 167.259 231.617C166.464 231.463 165.767 231.095 165.168 230.514L166.903 228.929C167.413 229.388 168.023 229.587 168.734 229.525C169.457 229.451 170.163 229.1 170.852 228.47C171.492 227.885 171.867 227.283 171.978 226.663C172.088 226.043 171.947 225.517 171.553 225.086C171.149 224.643 170.654 224.497 170.069 224.648C169.473 224.786 168.667 225.127 167.652 225.671C166.721 226.16 165.926 226.525 165.266 226.767C164.608 226.985 163.926 227.054 163.222 226.975C162.519 226.873 161.869 226.495 161.273 225.843C160.801 225.327 160.522 224.712 160.436 224.001C160.351 223.289 160.478 222.551 160.819 221.788C161.149 221.013 161.677 220.293 162.403 219.63C163.523 218.607 164.686 218.064 165.892 218C167.098 217.937 168.176 218.375 169.124 219.314L167.445 220.849C166.924 220.353 166.321 220.125 165.635 220.165C164.961 220.194 164.298 220.506 163.646 221.102C163.043 221.653 162.682 222.22 162.561 222.805C162.44 223.389 162.571 223.89 162.953 224.309C163.256 224.641 163.614 224.822 164.026 224.853C164.438 224.86 164.866 224.785 165.31 224.628C165.754 224.447 166.339 224.173 167.063 223.804C167.969 223.338 168.74 222.995 169.375 222.776C169.999 222.545 170.645 222.474 171.313 222.563C171.994 222.641 172.622 222.982 173.196 223.586C173.702 224.139 174.003 224.778 174.1 225.502C174.198 226.226 174.081 226.976 173.751 227.752C173.422 228.504 172.895 229.211 172.169 229.874Z" fill="black"/>
<path d="M111.128 246.377C111.404 245.542 111.871 244.854 112.529 244.314C113.204 243.771 114.069 243.418 115.123 243.255L115.482 245.577L114.889 245.669C112.369 246.059 111.321 247.621 111.744 250.355L112.883 257.717L110.634 258.065L108.54 244.526L110.788 244.178L111.128 246.377Z" fill="black"/>
</svg>
