<svg width="305" height="306" viewBox="0 0 305 306" fill="none" xmlns="http://www.w3.org/2000/svg">
<circle cx="5.5" cy="249.5" r="5.5" fill="#040C15"/> <circle cx="155.5" cy="300.5" r="5.5" fill="#040C15"/> <circle cx="86.5" cy="267.5" r="5.5" fill="#040C15"/> <circle cx="216.5" cy="272.5" r="5.5" fill="#040C15"/> <circle cx="216.5" cy="162.5" r="5.5" fill="#040C15"/> <circle cx="299.5" cy="248.5" r="5.5" fill="#040C15"/> <line x1="86.5" y1="268" x2="86.5" y2="129" stroke="#040C15" stroke-width="5"/> <line x1="155.51" y1="301" x2="155.51" y2="70" stroke="#040C15" stroke-width="5"/> <circle cx="155.5" cy="67.5" r="5.5" fill="#040C15"/> <line x1="216.657" y1="276.001" x2="216.657" y2="162" stroke="#040C15" stroke-width="5"/> <circle cx="86.5" cy="127.5" r="5.5" fill="#040C15"/> <path d="M299.99 249L273.464 224.221C272.183 223.025 270.153 223.177 269.065 224.55L248.222 250.85C246.465 253.067 242.898 251.844 242.871 249.015L241.456 100.788C241.435 98.5741 239.105 97.1451 237.122 98.13L193.746 119.673C192.726 120.18 192.081 121.22 192.081 122.36V294.5C192.081 296.157 190.737 297.5 189.081 297.5H182.363C180.706 297.5 179.363 296.157 179.363 294.5V5.61627C179.363 3.21802 176.688 1.78929 174.695 3.12277L131.365 32.109C130.532 32.6658 130.033 33.6011 130.033 34.6025V295.973C130.033 298.121 127.842 299.573 125.864 298.736L114.136 293.775C113.026 293.305 112.305 292.217 112.305 291.012V67.4759C112.305 65.1063 109.687 63.6721 107.69 64.9476L63.5892 93.1153C62.7263 93.6664 62.204 94.6197 62.204 95.6436V250.01C62.204 252.892 58.5359 254.116 56.8052 251.811L35.0441 222.836C33.9298 221.352 31.7493 221.226 30.4709 222.57L4.39546 250" stroke="#040C15" stroke-width="8" stroke-linejoin="round"/>
</svg>
